<mxfile host="app.diagrams.net" agent="Mozilla/5.0 (Windows NT 10.0; Win64; x64) AppleWebKit/537.36 (KHTML, like Gecko) Chrome/129.0.0.0 Safari/537.36" version="24.7.17">
  <diagram name="Page-1" id="Hju3Sf6a6cfFrD0-VGYq">
    <mxGraphModel dx="836" dy="434" grid="1" gridSize="10" guides="1" tooltips="1" connect="1" arrows="1" fold="1" page="1" pageScale="1" pageWidth="850" pageHeight="1100" math="0" shadow="0">
      <root>
        <mxCell id="0" />
        <mxCell id="1" parent="0" />
        <mxCell id="AuH7G92Ql4pjoIf0qaPo-2" style="edgeStyle=orthogonalEdgeStyle;rounded=0;orthogonalLoop=1;jettySize=auto;html=1;" edge="1" parent="1" source="AuH7G92Ql4pjoIf0qaPo-1" target="AuH7G92Ql4pjoIf0qaPo-3">
          <mxGeometry relative="1" as="geometry">
            <mxPoint x="410" y="150" as="targetPoint" />
          </mxGeometry>
        </mxCell>
        <mxCell id="AuH7G92Ql4pjoIf0qaPo-18" value="" style="edgeStyle=orthogonalEdgeStyle;rounded=0;orthogonalLoop=1;jettySize=auto;html=1;" edge="1" parent="1" source="AuH7G92Ql4pjoIf0qaPo-17" target="AuH7G92Ql4pjoIf0qaPo-8">
          <mxGeometry relative="1" as="geometry" />
        </mxCell>
        <mxCell id="AuH7G92Ql4pjoIf0qaPo-21" value="" style="edgeStyle=orthogonalEdgeStyle;rounded=0;orthogonalLoop=1;jettySize=auto;html=1;" edge="1" parent="1" source="AuH7G92Ql4pjoIf0qaPo-17" target="AuH7G92Ql4pjoIf0qaPo-20">
          <mxGeometry relative="1" as="geometry" />
        </mxCell>
        <mxCell id="AuH7G92Ql4pjoIf0qaPo-17" value="bool sumlseven=&lt;div&gt;number %2==0&lt;/div&gt;" style="rounded=0;whiteSpace=wrap;html=1;" vertex="1" parent="1">
          <mxGeometry x="340" y="530" width="140" height="90" as="geometry" />
        </mxCell>
        <mxCell id="AuH7G92Ql4pjoIf0qaPo-1" value="Start" style="ellipse;whiteSpace=wrap;html=1;" vertex="1" parent="1">
          <mxGeometry x="320" y="30" width="180" height="80" as="geometry" />
        </mxCell>
        <mxCell id="AuH7G92Ql4pjoIf0qaPo-4" style="edgeStyle=orthogonalEdgeStyle;rounded=0;orthogonalLoop=1;jettySize=auto;html=1;" edge="1" parent="1" source="AuH7G92Ql4pjoIf0qaPo-3" target="AuH7G92Ql4pjoIf0qaPo-5">
          <mxGeometry relative="1" as="geometry">
            <mxPoint x="410" y="270" as="targetPoint" />
          </mxGeometry>
        </mxCell>
        <mxCell id="AuH7G92Ql4pjoIf0qaPo-3" value="int num" style="shape=parallelogram;perimeter=parallelogramPerimeter;whiteSpace=wrap;html=1;fixedSize=1;" vertex="1" parent="1">
          <mxGeometry x="330" y="150" width="160" height="70" as="geometry" />
        </mxCell>
        <mxCell id="AuH7G92Ql4pjoIf0qaPo-7" style="edgeStyle=orthogonalEdgeStyle;rounded=0;orthogonalLoop=1;jettySize=auto;html=1;" edge="1" parent="1" source="AuH7G92Ql4pjoIf0qaPo-5" target="AuH7G92Ql4pjoIf0qaPo-8">
          <mxGeometry relative="1" as="geometry">
            <mxPoint x="410" y="360" as="targetPoint" />
          </mxGeometry>
        </mxCell>
        <mxCell id="AuH7G92Ql4pjoIf0qaPo-5" value="int sum=0" style="rounded=0;whiteSpace=wrap;html=1;" vertex="1" parent="1">
          <mxGeometry x="330" y="250" width="160" height="70" as="geometry" />
        </mxCell>
        <mxCell id="AuH7G92Ql4pjoIf0qaPo-9" value="true" style="edgeStyle=orthogonalEdgeStyle;rounded=0;orthogonalLoop=1;jettySize=auto;html=1;" edge="1" parent="1" source="AuH7G92Ql4pjoIf0qaPo-8" target="AuH7G92Ql4pjoIf0qaPo-10">
          <mxGeometry relative="1" as="geometry">
            <mxPoint x="560" y="415" as="targetPoint" />
          </mxGeometry>
        </mxCell>
        <mxCell id="AuH7G92Ql4pjoIf0qaPo-16" style="edgeStyle=orthogonalEdgeStyle;rounded=0;orthogonalLoop=1;jettySize=auto;html=1;" edge="1" parent="1" source="AuH7G92Ql4pjoIf0qaPo-8">
          <mxGeometry relative="1" as="geometry">
            <mxPoint x="410" y="520" as="targetPoint" />
          </mxGeometry>
        </mxCell>
        <mxCell id="AuH7G92Ql4pjoIf0qaPo-19" value="false" style="edgeLabel;html=1;align=center;verticalAlign=middle;resizable=0;points=[];" vertex="1" connectable="0" parent="AuH7G92Ql4pjoIf0qaPo-16">
          <mxGeometry x="-0.029" y="-2" relative="1" as="geometry">
            <mxPoint x="-2" y="-2" as="offset" />
          </mxGeometry>
        </mxCell>
        <mxCell id="AuH7G92Ql4pjoIf0qaPo-8" value="num&amp;gt;0" style="rhombus;whiteSpace=wrap;html=1;direction=south;" vertex="1" parent="1">
          <mxGeometry x="350" y="360" width="120" height="120" as="geometry" />
        </mxCell>
        <mxCell id="AuH7G92Ql4pjoIf0qaPo-22" style="edgeStyle=orthogonalEdgeStyle;rounded=0;orthogonalLoop=1;jettySize=auto;html=1;" edge="1" parent="1" source="AuH7G92Ql4pjoIf0qaPo-10" target="AuH7G92Ql4pjoIf0qaPo-8">
          <mxGeometry relative="1" as="geometry">
            <Array as="points">
              <mxPoint x="655" y="350" />
              <mxPoint x="410" y="350" />
            </Array>
          </mxGeometry>
        </mxCell>
        <mxCell id="AuH7G92Ql4pjoIf0qaPo-10" value="sum+=num %10&lt;div&gt;num/=10&lt;/div&gt;" style="rounded=0;whiteSpace=wrap;html=1;" vertex="1" parent="1">
          <mxGeometry x="580" y="371.25" width="150" height="97.5" as="geometry" />
        </mxCell>
        <mxCell id="AuH7G92Ql4pjoIf0qaPo-24" value="" style="edgeStyle=orthogonalEdgeStyle;rounded=0;orthogonalLoop=1;jettySize=auto;html=1;" edge="1" parent="1" source="AuH7G92Ql4pjoIf0qaPo-20" target="AuH7G92Ql4pjoIf0qaPo-23">
          <mxGeometry relative="1" as="geometry" />
        </mxCell>
        <mxCell id="AuH7G92Ql4pjoIf0qaPo-20" value="sumlsEven" style="shape=document;whiteSpace=wrap;html=1;boundedLbl=1;" vertex="1" parent="1">
          <mxGeometry x="350" y="660" width="120" height="80" as="geometry" />
        </mxCell>
        <mxCell id="AuH7G92Ql4pjoIf0qaPo-23" value="sonn" style="ellipse;whiteSpace=wrap;html=1;" vertex="1" parent="1">
          <mxGeometry x="350" y="780" width="120" height="80" as="geometry" />
        </mxCell>
        <mxCell id="AuH7G92Ql4pjoIf0qaPo-25" value="1" style="text;html=1;align=center;verticalAlign=middle;resizable=0;points=[];autosize=1;strokeColor=none;fillColor=none;" vertex="1" parent="1">
          <mxGeometry x="55" y="68" width="30" height="30" as="geometry" />
        </mxCell>
        <mxCell id="AuH7G92Ql4pjoIf0qaPo-26" value="2" style="text;html=1;align=center;verticalAlign=middle;resizable=0;points=[];autosize=1;strokeColor=none;fillColor=none;" vertex="1" parent="1">
          <mxGeometry x="40" y="958" width="30" height="30" as="geometry" />
        </mxCell>
        <mxCell id="AuH7G92Ql4pjoIf0qaPo-29" style="edgeStyle=orthogonalEdgeStyle;rounded=0;orthogonalLoop=1;jettySize=auto;html=1;exitX=0.5;exitY=1;exitDx=0;exitDy=0;entryX=0.5;entryY=0;entryDx=0;entryDy=0;" edge="1" parent="1" source="AuH7G92Ql4pjoIf0qaPo-27" target="AuH7G92Ql4pjoIf0qaPo-28">
          <mxGeometry relative="1" as="geometry" />
        </mxCell>
        <mxCell id="AuH7G92Ql4pjoIf0qaPo-27" value="start" style="ellipse;whiteSpace=wrap;html=1;" vertex="1" parent="1">
          <mxGeometry x="330" y="1030" width="180" height="80" as="geometry" />
        </mxCell>
        <mxCell id="AuH7G92Ql4pjoIf0qaPo-30" style="edgeStyle=orthogonalEdgeStyle;rounded=0;orthogonalLoop=1;jettySize=auto;html=1;" edge="1" parent="1" source="AuH7G92Ql4pjoIf0qaPo-28" target="AuH7G92Ql4pjoIf0qaPo-31">
          <mxGeometry relative="1" as="geometry">
            <mxPoint x="420" y="1310.0000000000002" as="targetPoint" />
          </mxGeometry>
        </mxCell>
        <mxCell id="AuH7G92Ql4pjoIf0qaPo-28" value="int number" style="shape=parallelogram;perimeter=parallelogramPerimeter;whiteSpace=wrap;html=1;fixedSize=1;" vertex="1" parent="1">
          <mxGeometry x="360" y="1190" width="120" height="60" as="geometry" />
        </mxCell>
        <mxCell id="AuH7G92Ql4pjoIf0qaPo-32" style="edgeStyle=orthogonalEdgeStyle;rounded=0;orthogonalLoop=1;jettySize=auto;html=1;" edge="1" parent="1" source="AuH7G92Ql4pjoIf0qaPo-31" target="AuH7G92Ql4pjoIf0qaPo-33">
          <mxGeometry relative="1" as="geometry">
            <mxPoint x="420" y="1390" as="targetPoint" />
          </mxGeometry>
        </mxCell>
        <mxCell id="AuH7G92Ql4pjoIf0qaPo-31" value="int sum=0&lt;div&gt;int count=0&lt;/div&gt;" style="rounded=0;whiteSpace=wrap;html=1;" vertex="1" parent="1">
          <mxGeometry x="360" y="1280.0000000000002" width="120" height="60" as="geometry" />
        </mxCell>
        <mxCell id="AuH7G92Ql4pjoIf0qaPo-35" style="edgeStyle=orthogonalEdgeStyle;rounded=0;orthogonalLoop=1;jettySize=auto;html=1;" edge="1" parent="1" source="AuH7G92Ql4pjoIf0qaPo-33" target="AuH7G92Ql4pjoIf0qaPo-36">
          <mxGeometry relative="1" as="geometry">
            <mxPoint x="700" y="1510" as="targetPoint" />
          </mxGeometry>
        </mxCell>
        <mxCell id="AuH7G92Ql4pjoIf0qaPo-44" value="true" style="edgeLabel;html=1;align=center;verticalAlign=middle;resizable=0;points=[];" vertex="1" connectable="0" parent="AuH7G92Ql4pjoIf0qaPo-35">
          <mxGeometry x="-0.2237" y="-2" relative="1" as="geometry">
            <mxPoint as="offset" />
          </mxGeometry>
        </mxCell>
        <mxCell id="AuH7G92Ql4pjoIf0qaPo-39" style="edgeStyle=orthogonalEdgeStyle;rounded=0;orthogonalLoop=1;jettySize=auto;html=1;" edge="1" parent="1" source="AuH7G92Ql4pjoIf0qaPo-33">
          <mxGeometry relative="1" as="geometry">
            <mxPoint x="420" y="1590" as="targetPoint" />
          </mxGeometry>
        </mxCell>
        <mxCell id="AuH7G92Ql4pjoIf0qaPo-40" value="false" style="edgeLabel;html=1;align=center;verticalAlign=middle;resizable=0;points=[];" vertex="1" connectable="0" parent="AuH7G92Ql4pjoIf0qaPo-39">
          <mxGeometry x="0.2475" y="-6" relative="1" as="geometry">
            <mxPoint as="offset" />
          </mxGeometry>
        </mxCell>
        <mxCell id="AuH7G92Ql4pjoIf0qaPo-33" value="number&amp;gt;0" style="rhombus;whiteSpace=wrap;html=1;" vertex="1" parent="1">
          <mxGeometry x="355" y="1390" width="130" height="80" as="geometry" />
        </mxCell>
        <mxCell id="AuH7G92Ql4pjoIf0qaPo-37" style="edgeStyle=orthogonalEdgeStyle;rounded=0;orthogonalLoop=1;jettySize=auto;html=1;" edge="1" parent="1" source="AuH7G92Ql4pjoIf0qaPo-36">
          <mxGeometry relative="1" as="geometry">
            <mxPoint x="440" y="1510" as="targetPoint" />
          </mxGeometry>
        </mxCell>
        <mxCell id="AuH7G92Ql4pjoIf0qaPo-36" value="sum+=number%10&lt;div&gt;count++&lt;/div&gt;&lt;div&gt;number/=10&lt;/div&gt;" style="rounded=0;whiteSpace=wrap;html=1;" vertex="1" parent="1">
          <mxGeometry x="640" y="1480" width="120" height="60" as="geometry" />
        </mxCell>
        <mxCell id="AuH7G92Ql4pjoIf0qaPo-38" value="" style="endArrow=none;html=1;rounded=0;exitX=0.654;exitY=0.875;exitDx=0;exitDy=0;exitPerimeter=0;" edge="1" parent="1" source="AuH7G92Ql4pjoIf0qaPo-33">
          <mxGeometry width="50" height="50" relative="1" as="geometry">
            <mxPoint x="320" y="1390" as="sourcePoint" />
            <mxPoint x="440" y="1510" as="targetPoint" />
          </mxGeometry>
        </mxCell>
        <mxCell id="AuH7G92Ql4pjoIf0qaPo-42" style="edgeStyle=orthogonalEdgeStyle;rounded=0;orthogonalLoop=1;jettySize=auto;html=1;" edge="1" parent="1" source="AuH7G92Ql4pjoIf0qaPo-41" target="AuH7G92Ql4pjoIf0qaPo-43">
          <mxGeometry relative="1" as="geometry">
            <mxPoint x="420" y="1680" as="targetPoint" />
          </mxGeometry>
        </mxCell>
        <mxCell id="AuH7G92Ql4pjoIf0qaPo-41" value="int avarage= sum/count" style="rounded=0;whiteSpace=wrap;html=1;" vertex="1" parent="1">
          <mxGeometry x="360" y="1560" width="120" height="60" as="geometry" />
        </mxCell>
        <mxCell id="AuH7G92Ql4pjoIf0qaPo-45" style="edgeStyle=orthogonalEdgeStyle;rounded=0;orthogonalLoop=1;jettySize=auto;html=1;" edge="1" parent="1" source="AuH7G92Ql4pjoIf0qaPo-43" target="AuH7G92Ql4pjoIf0qaPo-46">
          <mxGeometry relative="1" as="geometry">
            <mxPoint x="420" y="1790" as="targetPoint" />
          </mxGeometry>
        </mxCell>
        <mxCell id="AuH7G92Ql4pjoIf0qaPo-43" value="avarange" style="shape=document;whiteSpace=wrap;html=1;boundedLbl=1;" vertex="1" parent="1">
          <mxGeometry x="360" y="1660" width="120" height="80" as="geometry" />
        </mxCell>
        <mxCell id="AuH7G92Ql4pjoIf0qaPo-46" value="son" style="ellipse;whiteSpace=wrap;html=1;" vertex="1" parent="1">
          <mxGeometry x="360" y="1780" width="120" height="80" as="geometry" />
        </mxCell>
        <mxCell id="AuH7G92Ql4pjoIf0qaPo-47" value="3" style="text;html=1;align=center;verticalAlign=middle;resizable=0;points=[];autosize=1;strokeColor=none;fillColor=none;" vertex="1" parent="1">
          <mxGeometry x="35" y="1998" width="30" height="30" as="geometry" />
        </mxCell>
        <mxCell id="AuH7G92Ql4pjoIf0qaPo-49" style="edgeStyle=orthogonalEdgeStyle;rounded=0;orthogonalLoop=1;jettySize=auto;html=1;" edge="1" parent="1" source="AuH7G92Ql4pjoIf0qaPo-48" target="AuH7G92Ql4pjoIf0qaPo-50">
          <mxGeometry relative="1" as="geometry">
            <mxPoint x="420" y="2050" as="targetPoint" />
          </mxGeometry>
        </mxCell>
        <mxCell id="AuH7G92Ql4pjoIf0qaPo-48" value="start" style="ellipse;whiteSpace=wrap;html=1;" vertex="1" parent="1">
          <mxGeometry x="360" y="1950" width="120" height="70" as="geometry" />
        </mxCell>
        <mxCell id="AuH7G92Ql4pjoIf0qaPo-51" style="edgeStyle=orthogonalEdgeStyle;rounded=0;orthogonalLoop=1;jettySize=auto;html=1;" edge="1" parent="1" source="AuH7G92Ql4pjoIf0qaPo-50" target="AuH7G92Ql4pjoIf0qaPo-52">
          <mxGeometry relative="1" as="geometry">
            <mxPoint x="420" y="2150" as="targetPoint" />
          </mxGeometry>
        </mxCell>
        <mxCell id="AuH7G92Ql4pjoIf0qaPo-50" value="int salary&lt;div&gt;int credit&lt;/div&gt;" style="shape=parallelogram;perimeter=parallelogramPerimeter;whiteSpace=wrap;html=1;fixedSize=1;" vertex="1" parent="1">
          <mxGeometry x="360" y="2050" width="120" height="60" as="geometry" />
        </mxCell>
        <mxCell id="AuH7G92Ql4pjoIf0qaPo-53" style="edgeStyle=orthogonalEdgeStyle;rounded=0;orthogonalLoop=1;jettySize=auto;html=1;" edge="1" parent="1" source="AuH7G92Ql4pjoIf0qaPo-52" target="AuH7G92Ql4pjoIf0qaPo-54">
          <mxGeometry relative="1" as="geometry">
            <mxPoint x="420" y="2250" as="targetPoint" />
          </mxGeometry>
        </mxCell>
        <mxCell id="AuH7G92Ql4pjoIf0qaPo-52" value="year salary= salary*12&lt;div&gt;&lt;br&gt;&lt;/div&gt;" style="rounded=0;whiteSpace=wrap;html=1;" vertex="1" parent="1">
          <mxGeometry x="360" y="2150" width="120" height="60" as="geometry" />
        </mxCell>
        <mxCell id="AuH7G92Ql4pjoIf0qaPo-55" style="edgeStyle=orthogonalEdgeStyle;rounded=0;orthogonalLoop=1;jettySize=auto;html=1;" edge="1" parent="1" source="AuH7G92Ql4pjoIf0qaPo-54" target="AuH7G92Ql4pjoIf0qaPo-56">
          <mxGeometry relative="1" as="geometry">
            <mxPoint x="570" y="2300" as="targetPoint" />
          </mxGeometry>
        </mxCell>
        <mxCell id="AuH7G92Ql4pjoIf0qaPo-57" value="true" style="edgeLabel;html=1;align=center;verticalAlign=middle;resizable=0;points=[];" vertex="1" connectable="0" parent="AuH7G92Ql4pjoIf0qaPo-55">
          <mxGeometry x="-0.3222" y="-4" relative="1" as="geometry">
            <mxPoint as="offset" />
          </mxGeometry>
        </mxCell>
        <mxCell id="AuH7G92Ql4pjoIf0qaPo-58" style="edgeStyle=orthogonalEdgeStyle;rounded=0;orthogonalLoop=1;jettySize=auto;html=1;" edge="1" parent="1" source="AuH7G92Ql4pjoIf0qaPo-54" target="AuH7G92Ql4pjoIf0qaPo-59">
          <mxGeometry relative="1" as="geometry">
            <mxPoint x="280" y="2300" as="targetPoint" />
          </mxGeometry>
        </mxCell>
        <mxCell id="AuH7G92Ql4pjoIf0qaPo-60" value="false" style="edgeLabel;html=1;align=center;verticalAlign=middle;resizable=0;points=[];" vertex="1" connectable="0" parent="AuH7G92Ql4pjoIf0qaPo-58">
          <mxGeometry x="0.0282" y="5" relative="1" as="geometry">
            <mxPoint as="offset" />
          </mxGeometry>
        </mxCell>
        <mxCell id="AuH7G92Ql4pjoIf0qaPo-54" value="year salary *0.6&amp;gt; credit" style="rhombus;whiteSpace=wrap;html=1;" vertex="1" parent="1">
          <mxGeometry x="332.5" y="2260" width="175" height="80" as="geometry" />
        </mxCell>
        <mxCell id="AuH7G92Ql4pjoIf0qaPo-62" style="edgeStyle=orthogonalEdgeStyle;rounded=0;orthogonalLoop=1;jettySize=auto;html=1;exitX=0.5;exitY=1;exitDx=0;exitDy=0;" edge="1" parent="1" source="AuH7G92Ql4pjoIf0qaPo-56">
          <mxGeometry relative="1" as="geometry">
            <mxPoint x="639.7894736842106" y="2440" as="targetPoint" />
          </mxGeometry>
        </mxCell>
        <mxCell id="AuH7G92Ql4pjoIf0qaPo-56" value="succesful" style="rounded=0;whiteSpace=wrap;html=1;" vertex="1" parent="1">
          <mxGeometry x="580" y="2270" width="120" height="60" as="geometry" />
        </mxCell>
        <mxCell id="AuH7G92Ql4pjoIf0qaPo-61" style="edgeStyle=orthogonalEdgeStyle;rounded=0;orthogonalLoop=1;jettySize=auto;html=1;" edge="1" parent="1" source="AuH7G92Ql4pjoIf0qaPo-59">
          <mxGeometry relative="1" as="geometry">
            <mxPoint x="200" y="2440" as="targetPoint" />
          </mxGeometry>
        </mxCell>
        <mxCell id="AuH7G92Ql4pjoIf0qaPo-59" value="unsaccesful" style="rounded=0;whiteSpace=wrap;html=1;" vertex="1" parent="1">
          <mxGeometry x="140" y="2270" width="120" height="60" as="geometry" />
        </mxCell>
        <mxCell id="AuH7G92Ql4pjoIf0qaPo-63" value="" style="endArrow=none;html=1;rounded=0;" edge="1" parent="1">
          <mxGeometry width="50" height="50" relative="1" as="geometry">
            <mxPoint x="200" y="2440" as="sourcePoint" />
            <mxPoint x="640" y="2440" as="targetPoint" />
            <Array as="points">
              <mxPoint x="420" y="2440" />
            </Array>
          </mxGeometry>
        </mxCell>
        <mxCell id="AuH7G92Ql4pjoIf0qaPo-64" value="" style="endArrow=classic;html=1;rounded=0;" edge="1" parent="1" target="AuH7G92Ql4pjoIf0qaPo-65">
          <mxGeometry width="50" height="50" relative="1" as="geometry">
            <mxPoint x="400" y="2440" as="sourcePoint" />
            <mxPoint x="400" y="2520" as="targetPoint" />
          </mxGeometry>
        </mxCell>
        <mxCell id="AuH7G92Ql4pjoIf0qaPo-65" value="son" style="ellipse;whiteSpace=wrap;html=1;" vertex="1" parent="1">
          <mxGeometry x="340" y="2490" width="120" height="80" as="geometry" />
        </mxCell>
      </root>
    </mxGraphModel>
  </diagram>
</mxfile>
